#!OML:ASF E:\Mandelcareful walks\Project 1\Capture day 1\Session 1\Subject1.ASF
:FULLY-SPECIFIED
:DEGREES
62
root -25.4577 15.4392 2.07277 -168.318 6.28916 177.55
lowerback 31.5585 0.0387157 -4.56547
upperback 4.75194 -0.305417 -1.54484
thorax -11.0355 0.566407 0.814942
lowerneck -24.2139 -8.65498 -9.5174
upperneck 21.6778 -11.4621 10.8433
head 12.4244 -4.4676 3.5889
rclavicle 6.95746e-015 -3.97569e-015
rhumerus -25.9154 25.6732 -92.4681
rradius 55.5111
rwrist -2.83285
rhand -13.111 -27.1508
rfingers 7.12502
rthumb 12.9862 -56.7266
lclavicle 6.95746e-015 -3.97569e-015
lhumerus -24.3241 -54.8598 94.4869
lradius 59.0365
lwrist 5.0352
lhand -11.6703 -18.8005
lfingers 7.12502
lthumb 14.3747 10.6818
rfemur -33.3673 -13.4568 1.75726
rtibia 42.1299
rfoot -12.167 -16.7974
rtoes -8.87731
lfemur -42.7577 13.8535 -20.1954
ltibia 54.4852
lfoot -18.1126 12.495
ltoes -15.2548
63
root -25.4301 15.4464 2.07326 -168.095 6.27034 177.521
lowerback 31.2291 -0.0777051 -4.41483
upperback 4.73097 -0.407582 -1.46823
thorax -10.9219 0.500974 0.859482
lowerneck -24.3346 -8.67568 -9.51442
upperneck 21.8812 -11.4707 10.7436
head 12.5202 -4.47447 3.54946
rclavicle -9.14409e-015 -3.85642e-014
rhumerus -25.8644 25.8604 -92.2428
rradius 55.1538
rwrist -2.97544
rhand -12.8697 -26.6499
rfingers 7.12502
rthumb 13.2188 -56.2108
lclavicle -9.14409e-015 -3.85642e-014
lhumerus -24.0777 -54.4601 94.4419
lradius 58.5405
lwrist 5.64813
lhand -11.4645 -18.8836
lfingers 7.12502
lthumb 14.573 10.5844
rfemur -33.5122 -13.8513 1.99691
rtibia 41.9947
rfoot -12.0122 -16.6355
rtoes -10.3276
lfemur -42.7893 13.7805 -20.1962
ltibia 54.1514
lfoot -17.8029 12.6837
ltoes -15.5814
64
root -25.4009 15.4513 2.07341 -167.956 6.29574 177.557
lowerback 30.811 -0.130665 -4.02704
upperback 5.15659 -0.340567 -1.57829
thorax -11.069 0.506349 0.55368
lowerneck -24.1448 -8.66682 -9.27351
upperneck 21.7488 -11.575 10.8479
head 12.4374 -4.49253 3.53196
rclavicle -1.31198e-014 -2.50469e-014
rhumerus -25.8272 25.5086 -92.1958
rradius 54.6975
rwrist -2.94681
rhand -12.9255 -26.0301
rfingers 7.12502
rthumb 13.165 -55.5944
lclavicle -1.31198e-014 -2.50469e-014
lhumerus -23.7724 -54.4991 94.242
lradius 58.0552
lwrist 6.34864
lhand -11.1007 -18.3759
lfingers 7.12502
lthumb 14.9235 11.0665
rfemur -33.6107 -14.0897 2.2246
rtibia 41.9651
rfoot -12.0997 -16.449
rtoes -9.22281
lfemur -42.7327 13.9043 -20.1861
ltibia 53.8218
lfoot -17.2935 13.0228
ltoes -17.8927
65
root -25.3685 15.458 2.07518 -167.835 6.40789 177.658
lowerback 30.6997 -0.168662 -3.81303
upperback 5.18758 -0.3116 -1.52372
thorax -10.9824 0.509122 0.483106
lowerneck -24.3237 -8.52903 -9.14914
upperneck 21.7055 -11.4139 10.8693
head 12.4292 -4.4021 3.54833
rclavicle -2.98177e-015 5.1684e-015
rhumerus -25.6686 25.6318 -92.0326
rradius 54.2258
rwrist -2.84953
rhand -13.3513 -25.5766
rfingers 7.12502
rthumb 12.7545 -55.167
lclavicle -2.98177e-015 5.1684e-015
lhumerus -23.2663 -54.1319 93.9266
lradius 57.6589
lwrist 6.97766
lhand -11.5302 -19.1927
lfingers 7.12502
lthumb 14.5097 10.2799
rfemur -33.7866 -14.2326 2.52942
rtibia 42.0204
rfoot -12.1181 -16.2927
rtoes -7.68297
lfemur -42.6931 14.0633 -20.0236
ltibia 53.5328
lfoot -16.8671 13.2041
ltoes -19.3339
66
root -25.3368 15.4597 2.07902 -167.795 6.48425 177.682
lowerback 30.7126 -0.367912 -4.10667
upperback 5.14969 -0.640127 -1.1028
thorax -11.0081 0.366686 1.2642
lowerneck -24.5583 -8.10641 -9.53371
upperneck 21.9101 -10.5632 10.4946
head 12.447 -4.10242 3.63576
rclavicle -3.97569e-016 1.45113e-014
rhumerus -25.6091 26.8573 -91.6579
rradius 53.6743
rwrist -2.85062
rhand -13.6274 -25.2103
rfingers 7.12502
rthumb 12.4883 -54.8171
lclavicle -3.97569e-016 1.45113e-014
lhumerus -23.1114 -52.3844 94.1577
lradius 57.2379
lwrist 7.02558
lhand -10.77 -19.1733
lfingers 7.12502
lthumb 15.2421 10.2452
rfemur -33.9273 -14.5865 2.77127
rtibia 42.103
rfoot -12.1057 -15.9511
rtoes -8.28899
lfemur -42.5896 14.076 -19.898
ltibia 53.2845
lfoot -16.5348 13.3791
ltoes -20.181
67
root -25.3071 15.4577 2.08359 -167.82 6.52674 177.62
lowerback 30.7875 -0.398053 -3.88963
upperback 5.11588 -0.623764 -1.15209
thorax -11.0914 0.365794 1.0755
lowerneck -24.6619 -7.91235 -9.19793
upperneck 22.142 -10.3174 10.1414
head 12.4831 -4.00121 3.49639
rclavicle 3.97569e-016 -1.17283e-014
rhumerus -25.6515 26.1558 -91.6103
rradius 53.1167
rwrist -2.65833
rhand -14.1949 -24.594
rfingers 7.12502
rthumb 11.9412 -54.2334
lclavicle 3.97569e-016 -1.17283e-014
lhumerus -23.061 -52.3476 94.1391
lradius 56.9148
lwrist 6.85081
lhand -11.0643 -18.9682
lfingers 7.12502
lthumb 14.9585 10.4716
rfemur -34.0135 -14.9775 2.88338
rtibia 42.2115
rfoot -12.2138 -15.5463
rtoes -10.2063
lfemur -42.4292 14.0215 -19.8897
ltibia 53.0902
lfoot -16.2518 13.7054
ltoes -21.6873
68
root -25.2803 15.4618 2.08821 -167.813 6.63162 177.6
lowerback 30.8404 -0.409987 -3.74636
upperback 5.12566 -0.590248 -1.12762
thorax -11.1107 0.377142 1.00746
lowerneck -24.9767 -7.60251 -9.13766
upperneck 22.3889 -9.80611 9.84463
head 12.5576 -3.79556 3.47299
rclavicle 3.97569e-015 4.96962e-015
rhumerus -25.6866 25.7829 -91.4084
rradius 52.9042
rwrist -2.55701
rhand -14.7575 -24.0582
rfingers 7.12502
rthumb 11.3986 -53.7284
lclavicle 3.97569e-015 4.96962e-015
lhumerus -22.7835 -52.1091 93.984
lradius 56.7051
lwrist 6.60074
lhand -11.3314 -18.7903
lfingers 7.12502
lthumb 14.7012 10.6685
rfemur -34.1677 -15.2462 3.02078
rtibia 42.3455
rfoot -12.314 -15.166
rtoes -11.0079
lfemur -42.3222 13.894 -19.749
ltibia 52.9724
lfoot -16.1769 13.906
ltoes -22.1405
69
root -25.2561 15.4641 2.09517 -167.761 6.70373 177.539
lowerback 30.8859 -0.383121 -3.45207
upperback 5.14331 -0.466817 -1.23219
thorax -11.1251 0.423987 0.668364
lowerneck -25.3494 -7.11913 -8.37911
upperneck 22.492 -9.20289 9.18808
head 12.5179 -3.53803 3.20923
rclavicle -5.86415e-015 1.37161e-014
rhumerus -25.7653 25.0347 -91.2586
rradius 52.9338
rwrist -2.57581
rhand -15.4906 -23.5264
rfingers 7.12502
rthumb 10.6915 -53.2344
lclavicle -5.86415e-015 1.37161e-014
lhumerus -22.5634 -52.4041 93.6747
lradius 56.7628
lwrist 6.52023
lhand -11.0018 -18.2764
lfingers 7.12502
lthumb 15.0188 11.1589
rfemur -34.4118 -15.5755 3.12863
rtibia 42.5234
rfoot -12.3001 -14.8168
rtoes -10.8949
lfemur -42.3689 13.7277 -19.6445
ltibia 52.9428
lfoot -16.0924 13.931
ltoes -22.2706
70
root -25.2353 15.4647 2.10521 -167.695 6.68802 177.393
lowerback 30.9355 -0.534219 -3.57472
upperback 5.16519 -0.67682 -1.0163
thorax -11.1101 0.335514 1.06941
lowerneck -25.9283 -6.31269 -8.05257
upperneck 22.6292 -7.87465 8.1919
head 12.4713 -3.04841 3.02203
rclavicle 1.20265e-014 1.19271e-014
rhumerus -25.839 25.6546 -90.9188
rradius 53.1378
rwrist -3.08079
rhand -16.5395 -22.9996
rfingers 7.12502
rthumb 9.67962 -52.7572
lclavicle 1.20265e-014 1.19271e-014
lhumerus -22.2939 -51.5696 93.6222
lradius 56.8392
lwrist 6.43939
lhand -11.0897 -17.4188
lfingers 7.12502
lthumb 14.9341 12.0228
rfemur -34.7038 -16.0822 3.16831
rtibia 42.7706
rfoot -12.2642 -14.4727
rtoes -11.256
lfemur -42.5568 13.4771 -19.6212
ltibia 53.0027
lfoot -16.2452 13.7162
ltoes -20.7736
71
root -25.2191 15.463 2.11606 -167.634 6.70736 177.217
lowerback 31.1713 -0.534135 -3.37297
upperback 4.7214 -0.636128 -1.04357
thorax -10.9239 0.347319 0.840543
lowerneck -26.1103 -5.55854 -7.26509
upperneck 22.6128 -6.80224 7.12809
head 12.3135 -2.64881 2.6841
rclavicle -7.15625e-015 -1.67973e-014
rhumerus -26.0724 25.165 -90.8261
rradius 53.4339
rwrist -3.31741
rhand -16.9241 -22.5042
rfingers 7.12502
rthumb 9.30861 -52.2787
lclavicle -7.15625e-015 -1.67973e-014
lhumerus -22.1672 -51.6934 93.567
lradius 56.9723
lwrist 6.86083
lhand -10.9369 -16.7342
lfingers 7.12502
lthumb 15.0813 12.6965
rfemur -35.0651 -16.611 3.18107
rtibia 43.1175
rfoot -12.2591 -14.097
rtoes -11.6292
lfemur -42.7514 13.1867 -19.5735
ltibia 53.1177
lfoot -16.7321 13.3256
ltoes -17.0367
72
root -25.2032 15.4421 2.12449 -167.557 6.86338 177.084
lowerback 31.2588 -0.409886 -3.01975
upperback 4.67034 -0.391903 -1.26306
thorax -11.0357 0.446984 0.325311
lowerneck -26.152 -4.75701 -6.11628
upperneck 22.5204 -5.77101 5.89909
head 12.1102 -2.2595 2.2153
rclavicle 1.44119e-014 -1.05356e-014
rhumerus -26.3555 23.8561 -90.7738
rradius 53.8226
rwrist -3.42472
rhand -16.9462 -21.9189
rfingers 7.12502
rthumb 9.28721 -51.6943
lclavicle 1.44119e-014 -1.05356e-014
lhumerus -22.0526 -52.0825 93.3305
lradius 57.0833
lwrist 7.20661
lhand -10.4016 -16.9114
lfingers 7.12502
lthumb 15.5969 12.4797
rfemur -35.5487 -16.8399 3.17578
rtibia 43.579
rfoot -12.3033 -13.8137
rtoes -11.8479
lfemur -42.9289 13.295 -19.6987
ltibia 53.2714
lfoot -16.8384 13.3061
ltoes -17.1497
73
root -25.1872 15.4186 2.1317 -167.587 7.06578 177.026
lowerback 31.4614 -0.387074 -3.07943
upperback 4.76707 -0.347792 -1.16151
thorax -11.0104 0.479848 0.446539
lowerneck -26.7387 -3.64427 -5.3051
upperneck 22.5264 -4.0966 4.45312
head 12.0435 -1.63976 1.83278
rclavicle 2.1419e-014 2.78299e-015
rhumerus -26.2547 23.4527 -90.3637
rradius 54.361
rwrist -3.77379
rhand -17.2415 -21.5442
rfingers 7.12502
rthumb 9.00233 -51.3322
lclavicle 2.1419e-014 2.78299e-015
lhumerus -21.3429 -51.0827 92.7934
lradius 57.0052
lwrist 7.02703
lhand -10.168 -17.7163
lfingers 7.12502
lthumb 15.8219 11.6572
rfemur -35.9575 -16.8857 3.1715
rtibia 44.1034
rfoot -12.4247 -13.5263
rtoes -11.723
lfemur -43.0054 13.6394 -19.8177
ltibia 53.4962
lfoot -16.8261 13.4159
ltoes -19.4216
74
root -25.1757 15.4047 2.14015 -167.731 7.27407 177.003
lowerback 31.8085 -0.405003 -3.12277
upperback 4.89512 -0.342749 -1.08553
thorax -11.0085 0.500433 0.544241
lowerneck -27.1836 -2.3911 -4.33547
upperneck 22.3504 -2.22706 2.73182
head 11.9122 -0.961468 1.35347
rclavicle -2.48481e-015 1.799e-014
rhumerus -26.0741 23.1221 -89.988
rradius 54.9754
rwrist -4.3097
rhand -17.6561 -21.6581
rfingers 7.12502
rthumb 8.60226 -51.4628
lclavicle -2.48481e-015 1.799e-014
lhumerus -20.6543 -49.8284 92.2574
lradius 57.0587
lwrist 7.05723
lhand -10.1806 -18.0515
lfingers 7.12502
lthumb 15.8097 11.323
rfemur -36.2561 -16.9726 3.1827
rtibia 44.6514
rfoot -12.5591 -13.1434
rtoes -10.7402
lfemur -43.0066 13.9072 -19.7772
ltibia 53.8125
lfoot -17.0309 13.2904
ltoes -19.4719
75
root -25.1723 15.3817 2.1468 -167.794 7.49749 176.969
lowerback 32.1528 -0.359387 -2.95362
upperback 4.90043 -0.230535 -1.17944
thorax -11.1506 0.555427 0.306485
lowerneck -27.2353 -1.14676 -3.1126
upperneck 22.1514 -0.477147 0.955078
head 11.7641 -0.317726 0.792725
rclavicle 2.08227e-014 -1.79403e-014
rhumerus -26.1402 22.2552 -89.7119
rradius 55.6306
rwrist -4.89554
rhand -17.4066 -21.9902
rfingers 7.12502
rthumb 8.84296 -51.7849
lclavicle 2.08227e-014 -1.79403e-014
lhumerus -20.4647 -49.0701 91.9561
lradius 57.4394
lwrist 7.61877
lhand -10.9383 -18.3109
lfingers 7.12502
lthumb 15.0799 11.1198
rfemur -36.6149 -17.1029 3.1905
rtibia 45.156
rfoot -12.6825 -12.7906
rtoes -11.4886
lfemur -43.1875 14.1661 -19.8067
ltibia 54.232
lfoot -17.1292 13.2652
ltoes -19.8521
